<svg width="53" height="22" viewBox="0 0 53 22" fill="none" xmlns="http://www.w3.org/2000/svg">
<path opacity="0.3" d="M40.1861 3.90592C40.9029 2.36246 43.0971 2.36246 43.8139 3.90593L44.6478 5.7014C44.9392 6.32891 45.5342 6.76123 46.2211 6.84447L48.1863 7.08266C49.8757 7.28741 50.5538 9.3743 49.3074 10.533L47.8575 11.8808C47.3507 12.3519 47.1234 13.0514 47.2565 13.7303L47.6373 15.673C47.9646 17.343 46.1894 18.6328 44.7023 17.8054L42.9724 16.843C42.3678 16.5066 41.6322 16.5066 41.0276 16.843L39.2977 17.8054C37.8106 18.6328 36.0354 17.343 36.3627 15.673L36.7435 13.7303C36.8766 13.0514 36.6493 12.3519 36.1425 11.8808L34.6926 10.533C33.4462 9.3743 34.1242 7.28741 35.8137 7.08266L37.7789 6.84447C38.4658 6.76123 39.0608 6.32891 39.3522 5.7014L40.1861 3.90592Z" fill="url(#paint0_linear)"/>
<path opacity="0.3" d="M19.1989 6.87836C19.9106 5.34579 22.0894 5.34579 22.8011 6.87836C23.0905 7.50144 23.6813 7.93071 24.3633 8.01336C26.0408 8.21667 26.7141 10.2888 25.4765 11.4393C24.9733 11.9071 24.7476 12.6016 24.8798 13.2758C25.2048 14.934 23.4421 16.2147 21.9655 15.3932C21.3652 15.0592 20.6348 15.0592 20.0345 15.3932C18.5579 16.2147 16.7952 14.934 17.1202 13.2758C17.2524 12.6016 17.0267 11.9071 16.5235 11.4393C15.2859 10.2888 15.9592 8.21667 17.6367 8.01336C18.3187 7.93071 18.9095 7.50144 19.1989 6.87836Z" fill="url(#paint1_linear)"/>
<path opacity="0.3" d="M4.64915 7.90877C5.18295 6.75934 6.81705 6.75934 7.35085 7.90877C7.56787 8.37608 8.011 8.69803 8.5225 8.76002C9.78062 8.91251 10.2856 10.4666 9.35737 11.3295C8.98 11.6803 8.81074 12.2012 8.90984 12.7068C9.1536 13.9505 7.83159 14.911 6.72412 14.2949C6.27387 14.0444 5.72613 14.0444 5.27588 14.2949C4.16841 14.911 2.8464 13.9505 3.09016 12.7068C3.18926 12.2012 3.02 11.6803 2.64263 11.3295C1.71441 10.4666 2.21938 8.91251 3.4775 8.76002C3.989 8.69803 4.43213 8.37608 4.64915 7.90877Z" fill="url(#paint2_linear)"/>
<defs>
<linearGradient id="paint0_linear" x1="42" y1="0" x2="42" y2="22" gradientUnits="userSpaceOnUse">
<stop stop-color="white"/>
<stop offset="1" stop-color="#0A0E33"/>
</linearGradient>
<linearGradient id="paint1_linear" x1="21" y1="3" x2="21" y2="19" gradientUnits="userSpaceOnUse">
<stop stop-color="white"/>
<stop offset="1" stop-color="#0A0E33"/>
</linearGradient>
<linearGradient id="paint2_linear" x1="6" y1="5" x2="6" y2="17" gradientUnits="userSpaceOnUse">
<stop stop-color="white"/>
<stop offset="1" stop-color="#0A0E33"/>
</linearGradient>
</defs>
</svg>
