<svg width="61" height="32" viewBox="0 0 61 32" fill="none" xmlns="http://www.w3.org/2000/svg">
<path opacity="0.3" d="M13.1193 22.7318C11.6109 23.5197 9.87028 22.1836 10.2415 20.5228L10.6733 18.5908C10.8243 17.9156 10.6155 17.2104 10.1213 16.7261L8.70742 15.3405C7.49197 14.1494 8.22479 12.0811 9.91902 11.921L11.8899 11.7347C12.5787 11.6695 13.1849 11.253 13.4928 10.6334L14.3736 8.86056C15.1308 7.33652 17.3243 7.39434 18.0002 8.95616L18.7864 10.773C19.0612 11.4079 19.6447 11.8558 20.3291 11.9571L22.2874 12.247C23.9708 12.4962 24.5937 14.6002 23.3171 15.7257L21.8322 17.0348C21.3132 17.4924 21.0676 18.1857 21.1827 18.8679L21.5122 20.8199C21.7954 22.498 19.9868 23.7405 18.522 22.8742L16.818 21.8665C16.2225 21.5143 15.4872 21.495 14.874 21.8153L13.1193 22.7318Z" fill="url(#paint0_linear)"/>
<path opacity="0.3" d="M35.9893 20.383C34.5044 21.1893 32.7549 19.8906 33.0969 18.2358C33.236 17.5631 33.0175 16.8662 32.5191 16.3933C31.2934 15.2302 31.9879 13.1651 33.6674 12.979C34.3502 12.9033 34.9454 12.4801 35.2412 11.8601C35.9686 10.3349 38.1473 10.3573 38.8432 11.8971C39.1262 12.5231 39.7126 12.9584 40.3937 13.048C42.069 13.2686 42.721 15.3475 41.4716 16.4852C40.9637 16.9478 40.7309 17.64 40.8561 18.3155C41.1641 19.977 39.3883 21.2395 37.9202 20.4028C37.3234 20.0627 36.5931 20.0552 35.9893 20.383Z" fill="url(#paint1_linear)"/>
<path opacity="0.3" d="M51.2966 19.2994C50.193 19.9225 48.865 18.9704 49.1009 17.7252C49.1968 17.2189 49.0243 16.6991 48.6447 16.3507C47.711 15.4937 48.2062 13.9364 49.4633 13.776C49.9744 13.7108 50.4155 13.386 50.6296 12.9174C51.1561 11.7646 52.7902 11.7543 53.3312 12.9003C53.5512 13.3662 53.9963 13.6854 54.5082 13.7442C55.7673 13.8887 56.282 15.4396 55.3593 16.3083C54.9841 16.6615 54.8182 17.1835 54.9204 17.6885C55.172 18.9306 53.8561 19.8994 52.7448 19.2902C52.293 19.0426 51.7452 19.046 51.2966 19.2994Z" fill="url(#paint2_linear)"/>
<defs>
<linearGradient id="paint0_linear" x1="9.30208" y1="24.7257" x2="22.6979" y2="7.27425" gradientUnits="userSpaceOnUse">
<stop stop-color="white"/>
<stop offset="1" stop-color="#0A0E33"/>
</linearGradient>
<linearGradient id="paint1_linear" x1="32.2314" y1="22.4235" x2="41.7684" y2="9.57647" gradientUnits="userSpaceOnUse">
<stop stop-color="white"/>
<stop offset="1" stop-color="#0A0E33"/>
</linearGradient>
<linearGradient id="paint2_linear" x1="48.5039" y1="20.8763" x2="55.4959" y2="11.1238" gradientUnits="userSpaceOnUse">
<stop stop-color="white"/>
<stop offset="1" stop-color="#0A0E33"/>
</linearGradient>
</defs>
</svg>
